%TF.GenerationSoftware,KiCad,Pcbnew,7.0.10-7.0.10~ubuntu22.04.1*%
%TF.CreationDate,2024-01-12T01:12:04+11:00*%
%TF.ProjectId,Zemismart-ZM25TQ-TYW-ESP8266-Direct-Board,5a656d69-736d-4617-9274-2d5a4d323554,1*%
%TF.SameCoordinates,Original*%
%TF.FileFunction,Legend,Top*%
%TF.FilePolarity,Positive*%
%FSLAX46Y46*%
G04 Gerber Fmt 4.6, Leading zero omitted, Abs format (unit mm)*
G04 Created by KiCad (PCBNEW 7.0.10-7.0.10~ubuntu22.04.1) date 2024-01-12 01:12:04*
%MOMM*%
%LPD*%
G01*
G04 APERTURE LIST*
G04 Aperture macros list*
%AMRoundRect*
0 Rectangle with rounded corners*
0 $1 Rounding radius*
0 $2 $3 $4 $5 $6 $7 $8 $9 X,Y pos of 4 corners*
0 Add a 4 corners polygon primitive as box body*
4,1,4,$2,$3,$4,$5,$6,$7,$8,$9,$2,$3,0*
0 Add four circle primitives for the rounded corners*
1,1,$1+$1,$2,$3*
1,1,$1+$1,$4,$5*
1,1,$1+$1,$6,$7*
1,1,$1+$1,$8,$9*
0 Add four rect primitives between the rounded corners*
20,1,$1+$1,$2,$3,$4,$5,0*
20,1,$1+$1,$4,$5,$6,$7,0*
20,1,$1+$1,$6,$7,$8,$9,0*
20,1,$1+$1,$8,$9,$2,$3,0*%
G04 Aperture macros list end*
%ADD10C,0.200000*%
%ADD11C,0.150000*%
%ADD12C,0.152400*%
%ADD13C,0.059995*%
%ADD14R,0.540005X0.565659*%
%ADD15RoundRect,0.250000X-0.350000X-0.625000X0.350000X-0.625000X0.350000X0.625000X-0.350000X0.625000X0*%
%ADD16R,2.500000X1.100000*%
%ADD17R,1.100000X2.500000*%
G04 APERTURE END LIST*
D10*
X142944161Y-86745482D02*
X142991780Y-86650244D01*
X142991780Y-86650244D02*
X142991780Y-86507387D01*
X142991780Y-86507387D02*
X142944161Y-86364530D01*
X142944161Y-86364530D02*
X142848923Y-86269292D01*
X142848923Y-86269292D02*
X142753685Y-86221673D01*
X142753685Y-86221673D02*
X142563209Y-86174054D01*
X142563209Y-86174054D02*
X142420352Y-86174054D01*
X142420352Y-86174054D02*
X142229876Y-86221673D01*
X142229876Y-86221673D02*
X142134638Y-86269292D01*
X142134638Y-86269292D02*
X142039400Y-86364530D01*
X142039400Y-86364530D02*
X141991780Y-86507387D01*
X141991780Y-86507387D02*
X141991780Y-86602625D01*
X141991780Y-86602625D02*
X142039400Y-86745482D01*
X142039400Y-86745482D02*
X142087019Y-86793101D01*
X142087019Y-86793101D02*
X142420352Y-86793101D01*
X142420352Y-86793101D02*
X142420352Y-86602625D01*
X141991780Y-87221673D02*
X142991780Y-87221673D01*
X142991780Y-87221673D02*
X141991780Y-87793101D01*
X141991780Y-87793101D02*
X142991780Y-87793101D01*
X141991780Y-88269292D02*
X142991780Y-88269292D01*
X142991780Y-88269292D02*
X142991780Y-88507387D01*
X142991780Y-88507387D02*
X142944161Y-88650244D01*
X142944161Y-88650244D02*
X142848923Y-88745482D01*
X142848923Y-88745482D02*
X142753685Y-88793101D01*
X142753685Y-88793101D02*
X142563209Y-88840720D01*
X142563209Y-88840720D02*
X142420352Y-88840720D01*
X142420352Y-88840720D02*
X142229876Y-88793101D01*
X142229876Y-88793101D02*
X142134638Y-88745482D01*
X142134638Y-88745482D02*
X142039400Y-88650244D01*
X142039400Y-88650244D02*
X141991780Y-88507387D01*
X141991780Y-88507387D02*
X141991780Y-88269292D01*
X148960780Y-86126435D02*
X148960780Y-86745482D01*
X148960780Y-86745482D02*
X148579828Y-86412149D01*
X148579828Y-86412149D02*
X148579828Y-86555006D01*
X148579828Y-86555006D02*
X148532209Y-86650244D01*
X148532209Y-86650244D02*
X148484590Y-86697863D01*
X148484590Y-86697863D02*
X148389352Y-86745482D01*
X148389352Y-86745482D02*
X148151257Y-86745482D01*
X148151257Y-86745482D02*
X148056019Y-86697863D01*
X148056019Y-86697863D02*
X148008400Y-86650244D01*
X148008400Y-86650244D02*
X147960780Y-86555006D01*
X147960780Y-86555006D02*
X147960780Y-86269292D01*
X147960780Y-86269292D02*
X148008400Y-86174054D01*
X148008400Y-86174054D02*
X148056019Y-86126435D01*
X148960780Y-87031197D02*
X147960780Y-87364530D01*
X147960780Y-87364530D02*
X148960780Y-87697863D01*
X148960780Y-87935959D02*
X148960780Y-88555006D01*
X148960780Y-88555006D02*
X148579828Y-88221673D01*
X148579828Y-88221673D02*
X148579828Y-88364530D01*
X148579828Y-88364530D02*
X148532209Y-88459768D01*
X148532209Y-88459768D02*
X148484590Y-88507387D01*
X148484590Y-88507387D02*
X148389352Y-88555006D01*
X148389352Y-88555006D02*
X148151257Y-88555006D01*
X148151257Y-88555006D02*
X148056019Y-88507387D01*
X148056019Y-88507387D02*
X148008400Y-88459768D01*
X148008400Y-88459768D02*
X147960780Y-88364530D01*
X147960780Y-88364530D02*
X147960780Y-88078816D01*
X147960780Y-88078816D02*
X148008400Y-87983578D01*
X148008400Y-87983578D02*
X148056019Y-87935959D01*
X146055780Y-86793101D02*
X146531971Y-86459768D01*
X146055780Y-86221673D02*
X147055780Y-86221673D01*
X147055780Y-86221673D02*
X147055780Y-86602625D01*
X147055780Y-86602625D02*
X147008161Y-86697863D01*
X147008161Y-86697863D02*
X146960542Y-86745482D01*
X146960542Y-86745482D02*
X146865304Y-86793101D01*
X146865304Y-86793101D02*
X146722447Y-86793101D01*
X146722447Y-86793101D02*
X146627209Y-86745482D01*
X146627209Y-86745482D02*
X146579590Y-86697863D01*
X146579590Y-86697863D02*
X146531971Y-86602625D01*
X146531971Y-86602625D02*
X146531971Y-86221673D01*
X147055780Y-87126435D02*
X146055780Y-87793101D01*
X147055780Y-87793101D02*
X146055780Y-87126435D01*
X145023780Y-86205816D02*
X145023780Y-86777244D01*
X144023780Y-86491530D02*
X145023780Y-86491530D01*
X145023780Y-87015340D02*
X144023780Y-87682006D01*
X145023780Y-87682006D02*
X144023780Y-87015340D01*
D11*
X153954819Y-85166666D02*
X153478628Y-85499999D01*
X153954819Y-85738094D02*
X152954819Y-85738094D01*
X152954819Y-85738094D02*
X152954819Y-85357142D01*
X152954819Y-85357142D02*
X153002438Y-85261904D01*
X153002438Y-85261904D02*
X153050057Y-85214285D01*
X153050057Y-85214285D02*
X153145295Y-85166666D01*
X153145295Y-85166666D02*
X153288152Y-85166666D01*
X153288152Y-85166666D02*
X153383390Y-85214285D01*
X153383390Y-85214285D02*
X153431009Y-85261904D01*
X153431009Y-85261904D02*
X153478628Y-85357142D01*
X153478628Y-85357142D02*
X153478628Y-85738094D01*
X153954819Y-84214285D02*
X153954819Y-84785713D01*
X153954819Y-84499999D02*
X152954819Y-84499999D01*
X152954819Y-84499999D02*
X153097676Y-84595237D01*
X153097676Y-84595237D02*
X153192914Y-84690475D01*
X153192914Y-84690475D02*
X153240533Y-84785713D01*
X152454819Y-85166666D02*
X151978628Y-85499999D01*
X152454819Y-85738094D02*
X151454819Y-85738094D01*
X151454819Y-85738094D02*
X151454819Y-85357142D01*
X151454819Y-85357142D02*
X151502438Y-85261904D01*
X151502438Y-85261904D02*
X151550057Y-85214285D01*
X151550057Y-85214285D02*
X151645295Y-85166666D01*
X151645295Y-85166666D02*
X151788152Y-85166666D01*
X151788152Y-85166666D02*
X151883390Y-85214285D01*
X151883390Y-85214285D02*
X151931009Y-85261904D01*
X151931009Y-85261904D02*
X151978628Y-85357142D01*
X151978628Y-85357142D02*
X151978628Y-85738094D01*
X151454819Y-84833332D02*
X151454819Y-84214285D01*
X151454819Y-84214285D02*
X151835771Y-84547618D01*
X151835771Y-84547618D02*
X151835771Y-84404761D01*
X151835771Y-84404761D02*
X151883390Y-84309523D01*
X151883390Y-84309523D02*
X151931009Y-84261904D01*
X151931009Y-84261904D02*
X152026247Y-84214285D01*
X152026247Y-84214285D02*
X152264342Y-84214285D01*
X152264342Y-84214285D02*
X152359580Y-84261904D01*
X152359580Y-84261904D02*
X152407200Y-84309523D01*
X152407200Y-84309523D02*
X152454819Y-84404761D01*
X152454819Y-84404761D02*
X152454819Y-84690475D01*
X152454819Y-84690475D02*
X152407200Y-84785713D01*
X152407200Y-84785713D02*
X152359580Y-84833332D01*
X155454819Y-85166666D02*
X154978628Y-85499999D01*
X155454819Y-85738094D02*
X154454819Y-85738094D01*
X154454819Y-85738094D02*
X154454819Y-85357142D01*
X154454819Y-85357142D02*
X154502438Y-85261904D01*
X154502438Y-85261904D02*
X154550057Y-85214285D01*
X154550057Y-85214285D02*
X154645295Y-85166666D01*
X154645295Y-85166666D02*
X154788152Y-85166666D01*
X154788152Y-85166666D02*
X154883390Y-85214285D01*
X154883390Y-85214285D02*
X154931009Y-85261904D01*
X154931009Y-85261904D02*
X154978628Y-85357142D01*
X154978628Y-85357142D02*
X154978628Y-85738094D01*
X154550057Y-84785713D02*
X154502438Y-84738094D01*
X154502438Y-84738094D02*
X154454819Y-84642856D01*
X154454819Y-84642856D02*
X154454819Y-84404761D01*
X154454819Y-84404761D02*
X154502438Y-84309523D01*
X154502438Y-84309523D02*
X154550057Y-84261904D01*
X154550057Y-84261904D02*
X154645295Y-84214285D01*
X154645295Y-84214285D02*
X154740533Y-84214285D01*
X154740533Y-84214285D02*
X154883390Y-84261904D01*
X154883390Y-84261904D02*
X155454819Y-84833332D01*
X155454819Y-84833332D02*
X155454819Y-84214285D01*
X144564819Y-101411904D02*
X145374342Y-101411904D01*
X145374342Y-101411904D02*
X145469580Y-101364285D01*
X145469580Y-101364285D02*
X145517200Y-101316666D01*
X145517200Y-101316666D02*
X145564819Y-101221428D01*
X145564819Y-101221428D02*
X145564819Y-101030952D01*
X145564819Y-101030952D02*
X145517200Y-100935714D01*
X145517200Y-100935714D02*
X145469580Y-100888095D01*
X145469580Y-100888095D02*
X145374342Y-100840476D01*
X145374342Y-100840476D02*
X144564819Y-100840476D01*
X145564819Y-99840476D02*
X145564819Y-100411904D01*
X145564819Y-100126190D02*
X144564819Y-100126190D01*
X144564819Y-100126190D02*
X144707676Y-100221428D01*
X144707676Y-100221428D02*
X144802914Y-100316666D01*
X144802914Y-100316666D02*
X144850533Y-100411904D01*
X138954819Y-85166666D02*
X138478628Y-85499999D01*
X138954819Y-85738094D02*
X137954819Y-85738094D01*
X137954819Y-85738094D02*
X137954819Y-85357142D01*
X137954819Y-85357142D02*
X138002438Y-85261904D01*
X138002438Y-85261904D02*
X138050057Y-85214285D01*
X138050057Y-85214285D02*
X138145295Y-85166666D01*
X138145295Y-85166666D02*
X138288152Y-85166666D01*
X138288152Y-85166666D02*
X138383390Y-85214285D01*
X138383390Y-85214285D02*
X138431009Y-85261904D01*
X138431009Y-85261904D02*
X138478628Y-85357142D01*
X138478628Y-85357142D02*
X138478628Y-85738094D01*
X137954819Y-84261904D02*
X137954819Y-84738094D01*
X137954819Y-84738094D02*
X138431009Y-84785713D01*
X138431009Y-84785713D02*
X138383390Y-84738094D01*
X138383390Y-84738094D02*
X138335771Y-84642856D01*
X138335771Y-84642856D02*
X138335771Y-84404761D01*
X138335771Y-84404761D02*
X138383390Y-84309523D01*
X138383390Y-84309523D02*
X138431009Y-84261904D01*
X138431009Y-84261904D02*
X138526247Y-84214285D01*
X138526247Y-84214285D02*
X138764342Y-84214285D01*
X138764342Y-84214285D02*
X138859580Y-84261904D01*
X138859580Y-84261904D02*
X138907200Y-84309523D01*
X138907200Y-84309523D02*
X138954819Y-84404761D01*
X138954819Y-84404761D02*
X138954819Y-84642856D01*
X138954819Y-84642856D02*
X138907200Y-84738094D01*
X138907200Y-84738094D02*
X138859580Y-84785713D01*
X150954819Y-85166666D02*
X150478628Y-85499999D01*
X150954819Y-85738094D02*
X149954819Y-85738094D01*
X149954819Y-85738094D02*
X149954819Y-85357142D01*
X149954819Y-85357142D02*
X150002438Y-85261904D01*
X150002438Y-85261904D02*
X150050057Y-85214285D01*
X150050057Y-85214285D02*
X150145295Y-85166666D01*
X150145295Y-85166666D02*
X150288152Y-85166666D01*
X150288152Y-85166666D02*
X150383390Y-85214285D01*
X150383390Y-85214285D02*
X150431009Y-85261904D01*
X150431009Y-85261904D02*
X150478628Y-85357142D01*
X150478628Y-85357142D02*
X150478628Y-85738094D01*
X150288152Y-84309523D02*
X150954819Y-84309523D01*
X149907200Y-84547618D02*
X150621485Y-84785713D01*
X150621485Y-84785713D02*
X150621485Y-84166666D01*
D12*
%TO.C,R1*%
X153998603Y-86122936D02*
X153998603Y-86840970D01*
X153001397Y-86122936D02*
X153998603Y-86122936D01*
X153001397Y-86840970D02*
X153001397Y-86122936D01*
X153001397Y-87293396D02*
X153001397Y-88011430D01*
X153998603Y-88011430D02*
X153998603Y-87293396D01*
X153001397Y-88011430D02*
X153998603Y-88011430D01*
D13*
X153280010Y-86567183D02*
G75*
G03*
X153220016Y-86567183I-29997J0D01*
G01*
X153220016Y-86567183D02*
G75*
G03*
X153280010Y-86567183I29997J0D01*
G01*
D12*
%TO.C,R3*%
X152498603Y-86122936D02*
X152498603Y-86840970D01*
X151501397Y-86122936D02*
X152498603Y-86122936D01*
X151501397Y-86840970D02*
X151501397Y-86122936D01*
X151501397Y-87293396D02*
X151501397Y-88011430D01*
X152498603Y-88011430D02*
X152498603Y-87293396D01*
X151501397Y-88011430D02*
X152498603Y-88011430D01*
D13*
X151780010Y-86567183D02*
G75*
G03*
X151720016Y-86567183I-29997J0D01*
G01*
X151720016Y-86567183D02*
G75*
G03*
X151780010Y-86567183I29997J0D01*
G01*
D12*
%TO.C,R2*%
X155498603Y-86122936D02*
X155498603Y-86840970D01*
X154501397Y-86122936D02*
X155498603Y-86122936D01*
X154501397Y-86840970D02*
X154501397Y-86122936D01*
X154501397Y-87293396D02*
X154501397Y-88011430D01*
X155498603Y-88011430D02*
X155498603Y-87293396D01*
X154501397Y-88011430D02*
X155498603Y-88011430D01*
D13*
X154780010Y-86567183D02*
G75*
G03*
X154720016Y-86567183I-29997J0D01*
G01*
X154720016Y-86567183D02*
G75*
G03*
X154780010Y-86567183I29997J0D01*
G01*
D12*
%TO.C,U1*%
X155016000Y-92141000D02*
X155016000Y-91379000D01*
X155016000Y-91379000D02*
X139014000Y-91379000D01*
X139014000Y-91379000D02*
X139014000Y-92141000D01*
%TO.C,R5*%
X138998603Y-86122936D02*
X138998603Y-86840970D01*
X138001397Y-86122936D02*
X138998603Y-86122936D01*
X138001397Y-86840970D02*
X138001397Y-86122936D01*
X138001397Y-87293396D02*
X138001397Y-88011430D01*
X138998603Y-88011430D02*
X138998603Y-87293396D01*
X138001397Y-88011430D02*
X138998603Y-88011430D01*
D13*
X138280010Y-86567183D02*
G75*
G03*
X138220016Y-86567183I-29997J0D01*
G01*
X138220016Y-86567183D02*
G75*
G03*
X138280010Y-86567183I29997J0D01*
G01*
D12*
%TO.C,R4*%
X150998603Y-86122936D02*
X150998603Y-86840970D01*
X150001397Y-86122936D02*
X150998603Y-86122936D01*
X150001397Y-86840970D02*
X150001397Y-86122936D01*
X150001397Y-87293396D02*
X150001397Y-88011430D01*
X150998603Y-88011430D02*
X150998603Y-87293396D01*
X150001397Y-88011430D02*
X150998603Y-88011430D01*
D13*
X150280010Y-86567183D02*
G75*
G03*
X150220016Y-86567183I-29997J0D01*
G01*
X150220016Y-86567183D02*
G75*
G03*
X150280010Y-86567183I29997J0D01*
G01*
%TD*%
%LPC*%
D14*
%TO.C,R1*%
X153500000Y-86634366D03*
X153500000Y-87500000D03*
%TD*%
%TO.C,R3*%
X152000000Y-86634366D03*
X152000000Y-87500000D03*
%TD*%
%TO.C,R2*%
X155000000Y-86634366D03*
X155000000Y-87500000D03*
%TD*%
D15*
%TO.C,J1*%
X140494000Y-84836000D03*
X142494000Y-84836000D03*
X144494000Y-84836000D03*
X146494000Y-84836000D03*
X148494000Y-84836000D03*
%TD*%
D16*
%TO.C,U1*%
X154700000Y-107000000D03*
X154700000Y-105000000D03*
X154700000Y-103000000D03*
X154700000Y-101000000D03*
X154700000Y-99000000D03*
X154700000Y-97000000D03*
X154700000Y-95000000D03*
X154700000Y-93000000D03*
X139300000Y-93000000D03*
X139300000Y-95000000D03*
X139300000Y-97000000D03*
X139300000Y-99000000D03*
X139300000Y-101000000D03*
X139300000Y-103000000D03*
X139300000Y-105000000D03*
X139300000Y-107000000D03*
D17*
X152010000Y-91300000D03*
X150010000Y-91300000D03*
X148010000Y-91300000D03*
X146010000Y-91300000D03*
X144010000Y-91300000D03*
X142010000Y-91300000D03*
%TD*%
D14*
%TO.C,R5*%
X138500000Y-86634366D03*
X138500000Y-87500000D03*
%TD*%
%TO.C,R4*%
X150500000Y-86634366D03*
X150500000Y-87500000D03*
%TD*%
%LPD*%
M02*
